<?xml version="1.0" encoding="UTF-8"?>
<svg id="Calque_1" data-name="Calque 1" xmlns="http://www.w3.org/2000/svg" viewBox="0 0 1282.67 470.81">
  <defs>
    <style>
      .cls-1, .cls-2 {
        isolation: isolate;
      }

      .cls-3, .cls-2 {
        fill: #0d0d0d;
      }

      .cls-4 {
        fill: #182573;
      }

      .cls-2 {
        opacity: .25;
      }

      .cls-5 {
        fill: #0511f3;
      }
    </style>
  </defs>
  <path class="cls-4" d="M347.04,369.1h-218.13c-29.1,0-52.77-23.67-52.77-52.77v-161.84c0-29.1,23.67-52.77,52.77-52.77h218.13c29.1,0,52.77,23.67,52.77,52.77v161.84c0,29.1-23.67,52.77-52.77,52.77ZM128.91,115.78c-21.34,0-38.7,17.36-38.7,38.7v161.84c0,21.34,17.36,38.7,38.7,38.7h218.13c21.34,0,38.7-17.36,38.7-38.7v-161.84c0-21.34-17.36-38.7-38.7-38.7h-218.13Z"/>
  <path class="cls-2" d="M336.49,337.43h-197.02c-17.46,0-31.66-14.2-31.66-31.66v-140.73c0-17.46,14.21-31.66,31.66-31.66h197.02c17.46,0,31.66,14.2,31.66,31.66v140.73c0,17.46-14.21,31.66-31.66,31.66ZM139.46,140.41c-13.58,0-24.63,11.05-24.63,24.63v140.73c0,13.58,11.05,24.63,24.63,24.63h197.02c13.58,0,24.63-11.05,24.63-24.63v-140.73c0-13.58-11.05-24.63-24.63-24.63h-197.02Z"/>
  <path class="cls-3" d="M139.46,304.89c-3.4,0-6.16-2.76-6.16-6.16v-126.66c0-3.4,2.76-6.16,6.16-6.16s6.16,2.76,6.16,6.16v126.66c0,3.4-2.76,6.16-6.16,6.16Z"/>
  <path class="cls-3" d="M336.49,304.89c-3.4,0-6.16-2.76-6.16-6.16v-126.66c0-3.4,2.76-6.16,6.16-6.16s6.16,2.76,6.16,6.16v126.66c0,3.4-2.76,6.16-6.16,6.16Z"/>
  <path class="cls-5" d="M273.16,274.99c-14.97,0-28.74-11.69-42.1-35.74-10.03-18.05-19.8-27.59-28.26-27.59s-18.23,9.54-28.26,27.59c-2.13,3.82-6.94,5.2-10.76,3.08-3.82-2.12-5.2-6.94-3.08-10.76,13.36-24.05,27.13-35.74,42.1-35.74s28.74,11.69,42.1,35.74c10.03,18.05,19.8,27.59,28.26,27.59s18.23-9.54,28.26-27.59c2.12-3.82,6.94-5.2,10.76-3.08,3.82,2.12,5.2,6.94,3.08,10.76-13.36,24.05-27.13,35.74-42.1,35.74Z"/>
  <g class="cls-1">
    <path class="cls-4" d="M520.51,190.61v108.8h24.51c4.91,0,8.42.94,10.51,2.84,2.09,1.89,3.14,4.37,3.14,7.42s-1.05,5.43-3.14,7.33c-2.09,1.89-5.6,2.84-10.51,2.84h-69.45c-4.92,0-8.42-.95-10.51-2.84-2.09-1.9-3.14-4.37-3.14-7.42s1.05-5.43,3.14-7.32c2.09-1.9,5.6-2.84,10.51-2.84h24.51v-88.38h-16.44c-4.85,0-8.34-.95-10.46-2.84-2.13-1.9-3.19-4.37-3.19-7.42s1.05-5.43,3.14-7.32c2.09-1.9,5.6-2.84,10.51-2.84h36.87Z"/>
    <path class="cls-4" d="M611.68,190.61v43.54c4.25-2.53,8.55-4.4,12.9-5.63,4.35-1.23,8.75-1.85,13.2-1.85,7.04,0,13.32,1.2,18.83,3.59,5.51,2.39,10.08,6.16,13.7,11.31,3.62,5.15,5.43,11.64,5.43,19.48v38.36c5.18,0,8.57.5,10.16,1.49,3.19,2.06,4.78,4.98,4.78,8.77,0,2.99-1.03,5.43-3.09,7.33-2.06,1.89-5.55,2.84-10.46,2.84h-23.32c-4.85,0-8.32-.95-10.41-2.84-2.09-1.9-3.14-4.37-3.14-7.42,0-3.72,1.59-6.61,4.78-8.67,1.66-1.06,5.05-1.56,10.16-1.49v-36.97c0-5.25-1.2-8.93-3.59-11.06-3.12-2.86-7.74-4.28-13.85-4.28-4.52,0-8.52.88-12.01,2.64-3.49,1.76-8.19,5.57-14.1,11.41v38.26c5.25,0,8.63.5,10.16,1.49,3.25,2.06,4.88,4.98,4.88,8.77,0,2.99-1.05,5.43-3.14,7.33-2.09,1.89-5.6,2.84-10.51,2.84h-23.22c-4.92,0-8.42-.95-10.51-2.84-2.09-1.9-3.14-4.37-3.14-7.42,0-3.72,1.63-6.61,4.88-8.67,1.59-1.06,4.98-1.56,10.16-1.49v-88.38h-3.49c-4.92,0-8.42-.95-10.51-2.84-2.09-1.9-3.14-4.37-3.14-7.42s1.05-5.43,3.14-7.32c2.09-1.9,5.6-2.84,10.51-2.84h23.91Z"/>
    <path class="cls-4" d="M787.04,233.06c2.46-2.33,4.98-3.49,7.57-3.49,2.92,0,5.33,1.04,7.22,3.14,1.89,2.09,2.84,5.56,2.84,10.41v13.15c0,4.92-.95,8.4-2.84,10.46s-4.37,3.09-7.42,3.09c-2.79,0-5.15-.8-7.07-2.39-1.39-1.2-2.49-3.64-3.29-7.33-.8-3.68-2.72-6.42-5.78-8.22-5.38-3.19-12.26-4.78-20.63-4.78-9.63,0-17.35,2.82-23.17,8.47-5.81,5.65-8.72,12.79-8.72,21.42,0,7.97,2.79,14.27,8.37,18.88,5.58,4.61,14.85,6.92,27.8,6.92,8.5,0,15.44-.86,20.82-2.59,3.19-1.06,6.21-2.87,9.07-5.43,2.86-2.56,5.45-3.83,7.77-3.83,2.79,0,5.2,1.03,7.22,3.09,2.03,2.06,3.04,4.48,3.04,7.27,0,4.52-3.09,8.8-9.27,12.85-9.17,6.04-22.59,9.07-40.25,9.07-15.88,0-28.23-3.29-37.07-9.86-11.96-8.83-17.93-20.92-17.93-36.27,0-14.55,4.85-26.59,14.55-36.12,9.7-9.53,22.35-14.3,37.96-14.3,5.65,0,10.89.53,15.74,1.59,4.85,1.06,9.33,2.66,13.45,4.78Z"/>
    <path class="cls-4" d="M872.63,249.8v40.95c0,4.38.9,7.27,2.69,8.67,2.79,2.19,7.77,3.29,14.95,3.29,10.43,0,20.06-2.23,28.9-6.68,3.39-1.73,6.04-2.59,7.97-2.59,2.66,0,4.96,1,6.92,2.99,1.96,1.99,2.94,4.42,2.94,7.27,0,2.66-1.06,4.95-3.19,6.88-3.26,3.12-9.68,6-19.28,8.62-9.6,2.62-17.69,3.93-24.26,3.93-12.69,0-22.2-2.74-28.55-8.22-6.34-5.48-9.52-12.2-9.52-20.17v-44.94h-7.37c-4.92,0-8.42-.94-10.51-2.84-2.09-1.89-3.14-4.37-3.14-7.42s1.05-5.43,3.14-7.33c2.09-1.89,5.6-2.84,10.51-2.84h7.37v-18.43c0-4.92.95-8.42,2.84-10.51,1.89-2.1,4.37-3.14,7.42-3.14s5.43,1.04,7.32,3.14c1.89,2.09,2.84,5.59,2.84,10.51v18.43h37.76c4.91,0,8.42.95,10.51,2.84,2.09,1.9,3.14,4.37,3.14,7.42s-1.05,5.43-3.14,7.32c-2.09,1.9-5.6,2.84-10.51,2.84h-37.76Z"/>
    <path class="cls-4" d="M995.88,229.37v12.75c8.57-6.18,15.33-10.3,20.28-12.36,4.95-2.06,9.58-3.09,13.9-3.09,6.64,0,13.09,2.46,19.33,7.37,4.25,3.32,6.38,6.71,6.38,10.16,0,2.92-1.01,5.4-3.04,7.42-2.03,2.02-4.47,3.04-7.32,3.04-2.53,0-5.18-1.26-7.97-3.79s-5.28-3.79-7.47-3.79c-2.86,0-7.12,1.79-12.8,5.38s-12.77,8.97-21.27,16.14v30.79h29.09c4.91,0,8.42.94,10.51,2.84,2.09,1.89,3.14,4.37,3.14,7.42s-1.05,5.43-3.14,7.33c-2.09,1.89-5.6,2.84-10.51,2.84h-61.68c-4.92,0-8.42-.95-10.51-2.84-2.09-1.9-3.14-4.37-3.14-7.42s1.05-5.43,3.14-7.32c2.09-1.9,5.6-2.84,10.51-2.84h12.16v-49.62h-7.37c-4.92,0-8.42-.94-10.51-2.84-2.09-1.89-3.14-4.37-3.14-7.42s1.05-5.43,3.14-7.33c2.09-1.89,5.6-2.84,10.51-2.84h27.8Z"/>
    <path class="cls-4" d="M1132.79,190.61v108.8h24.51c4.91,0,8.42.94,10.51,2.84,2.09,1.89,3.14,4.37,3.14,7.42s-1.05,5.43-3.14,7.33c-2.09,1.89-5.6,2.84-10.51,2.84h-69.45c-4.92,0-8.42-.95-10.51-2.84-2.09-1.9-3.14-4.37-3.14-7.42s1.05-5.43,3.14-7.32c2.09-1.9,5.6-2.84,10.51-2.84h24.51v-88.38h-16.44c-4.85,0-8.34-.95-10.46-2.84-2.13-1.9-3.19-4.37-3.19-7.42s1.05-5.43,3.14-7.32c2.09-1.9,5.6-2.84,10.51-2.84h36.87Z"/>
    <path class="cls-4" d="M1260.62,309.58c0,3.85-1.36,7.07-4.09,9.66-2.72,2.59-6.48,3.89-11.26,3.89s-8.54-1.3-11.26-3.89c-2.72-2.59-4.09-5.81-4.09-9.66s1.36-7.07,4.09-9.66c2.72-2.59,6.48-3.89,11.26-3.89s8.53,1.3,11.26,3.89c2.72,2.59,4.09,5.81,4.09,9.66Z"/>
  </g>
</svg>